# xmcd CD database file
#
# Track frame offsets:
#	150
#	20567
#	38646
#	55458
#	75582
#	91415
#	111097
#	124739
#	141227
#	159366
#	175157
#	188639
#	203601
#	222823
#	244943
#	258300
#	271852
#	285665
#	301157
#	320912
#
# Disc length: 4510 seconds
#
# Revision: 0
# Processed by: cddbd v1.5.1PL0 Copyright (c) Steve Scherf et al.
# Submitted via: ACXtractor (MTCDDB.DLL V2003.04.16)
#
DISCID=17119c14
DTITLE=Brooks and Dunn - The Very Best Of Brooks and Dunn
DYEAR=2004
DGENRE=Country
TTITLE0=Only In America
TTITLE1=That's What It's All About
TTITLE2=Rock My World (Little Country Girl)
TTITLE3=The Long Goodbye
TTITLE4=My Maria
TTITLE5=Red Dirt Road
TTITLE6=Independent Trucker
TTITLE7=Ain't Nothing 'Bout You
TTITLE8=If You See Him
TTITLE9=You Can't Take The Honky Tonk Out Of The Girl
TTITLE10=Hard Workin' Man
TTITLE11=Boot Scootin' Boogie
TTITLE12=It's Getting Better All The Time
TTITLE13=You're Gonna Miss Me When I'm Gone
TTITLE14=My Next Broken Heart
TTITLE15=Brand New Man
TTITLE16=Little Miss Honky Tonk
TTITLE17=She's Not The Cheatin' Kind
TTITLE18=Neon Moon
TTITLE19=South Of Santa Fe
EXTD=ID3G:   2 YEAR: 2004
EXTT0=
EXTT1=
EXTT2=
EXTT3=
EXTT4=
EXTT5=
EXTT6=
EXTT7=
EXTT8=
EXTT9=
EXTT10=
EXTT11=
EXTT12=
EXTT13=
EXTT14=
EXTT15=
EXTT16=
EXTT17=
EXTT18=
EXTT19=
PLAYORDER=
